<svg xmlns="http://www.w3.org/2000/svg" xmlns:xlink="http://www.w3.org/1999/xlink" width="30.92" height="31.551" viewBox="0 0 30.92 31.551">
  <defs>
    <clipPath id="clip-path">
      <path id="Path_276" data-name="Path 276" d="M60,112.5H84v24.926H60Zm0,0" transform="translate(-60 -112.5)"/>
    </clipPath>
    <clipPath id="clip-path-2">
      <path id="Path_278" data-name="Path 278" d="M27.1,144H51.27v24.926H27.1Zm0,0" transform="translate(-27.102 -144)"/>
    </clipPath>
  </defs>
  <g id="Group_156" data-name="Group 156" transform="translate(-6243 -940)">
    <g id="Group_154" data-name="Group 154" transform="translate(6249.92 940)" clip-path="url(#clip-path)">
      <path id="Path_275" data-name="Path 275" d="M83.6,137.183H60.719a.537.537,0,0,1-.494-.329.518.518,0,0,1-.041-.2v-23.7a.518.518,0,0,1,.041-.2.537.537,0,0,1,.289-.288.534.534,0,0,1,.583.116.525.525,0,0,1,.116.172.518.518,0,0,1,.041.2v23.167H83.6a.525.525,0,0,1,.2.04.541.541,0,0,1,.174.116.533.533,0,0,1,.156.377.529.529,0,0,1-.156.377.541.541,0,0,1-.174.116A.526.526,0,0,1,83.6,137.183Zm0,0" transform="translate(-60.145 -112.432)"/>
    </g>
    <g id="Group_155" data-name="Group 155" transform="translate(6243 946.626)" clip-path="url(#clip-path-2)">
      <path id="Path_277" data-name="Path 277" d="M50.862,169.369a.531.531,0,0,1-.2-.04.537.537,0,0,1-.173-.116.536.536,0,0,1-.157-.377V145.665H27.965a.536.536,0,0,1-.379-.157.528.528,0,0,1-.156-.377.531.531,0,0,1,.156-.377.531.531,0,0,1,.379-.156h22.9a.534.534,0,0,1,.495.329.525.525,0,0,1,.041.2v23.7a.536.536,0,0,1-.157.377.531.531,0,0,1-.379.156Zm0,0" transform="translate(-27.361 -144.472)"/>
    </g>
  </g>
</svg>
