<svg xmlns="http://www.w3.org/2000/svg" xmlns:xlink="http://www.w3.org/1999/xlink" width="36.713" height="50.053" viewBox="0 0 36.713 50.053">
  <defs>
    <clipPath id="clip-path">
      <path id="Path_261" data-name="Path 261" d="M190,126.391h9.01v21.56H190Zm0,0" transform="translate(-190 -126.391)"/>
    </clipPath>
    <clipPath id="clip-path-2">
      <path id="Path_264" data-name="Path 264" d="M142.914,137.477h36.713v46.354H142.914Zm0,0" transform="translate(-142.914 -137.477)"/>
    </clipPath>
  </defs>
  <g id="اليد" transform="translate(-1584 -712)">
    <g id="Group_148" data-name="Group 148" transform="translate(1585.335 713.668)">
      <path id="Path_260" data-name="Path 260" d="M190.91,146.155V129.742a3.126,3.126,0,0,1,1.206-2.421,4.431,4.431,0,0,1,5.432,0,3.126,3.126,0,0,1,1.207,2.421v16.413" transform="translate(-176.051 -126.391)" fill="#fff"/>
      <path id="Path_262" data-name="Path 262" d="M211.32,134.923a2.638,2.638,0,0,1,1.078-2.213,4.7,4.7,0,0,1,5.325.2,3.125,3.125,0,0,1,1.2,2.422v16.413" transform="translate(-190.143 -130.248)" fill="#fff"/>
      <path id="Path_263" data-name="Path 263" d="M171.248,141.994a3.357,3.357,0,0,1,5.726,2.368v23.32c0,2.958-1.142,12.859-13.9,12.859l-.059,0c-6.808-.548-10.146-5.547-14.541-12.131-1.435-2.15-2.987-4.476-4.823-6.873l-.035-.054-.011-.017,0,0a4.309,4.309,0,0,1-.622-3.057,3.759,3.759,0,0,1,1.669-2.534l0,0,.013-.009.009,0a3.837,3.837,0,0,1,3.036-.426,4.407,4.407,0,0,1,2.524,1.839l2.122,2.9V140.914a3.338,3.338,0,0,1,.981-2.368v0a3.335,3.335,0,0,1,2.37-.98,4.629,4.629,0,0,1,2.522.621,2.3,2.3,0,0,1,1.07,2.021" transform="translate(-142.915 -134.104)" fill="#fff"/>
    </g>
    <g id="تصميم_بدون_عنوان_23_" data-name="تصميم بدون عنوان (23)" transform="translate(1584 712)">
      <g id="Group_146" data-name="Group 146" transform="translate(15.713 0)" clip-path="url(#clip-path)">
        <path id="Path_260-2" data-name="Path 260" d="M197.721,147.694V130a1.754,1.754,0,0,0-.7-1.337,3.138,3.138,0,0,0-3.775,0,1.752,1.752,0,0,0-.7,1.337v17.691H190.91V130a3.369,3.369,0,0,1,1.3-2.61,4.777,4.777,0,0,1,5.856,0,3.37,3.37,0,0,1,1.3,2.61v17.691h-1.645" transform="translate(-190.606 -126.391)"/>
      </g>
      <path id="Path_262-2" data-name="Path 262" d="M217.874,153.28V135.589a1.747,1.747,0,0,0-.693-1.339,2.988,2.988,0,0,0-1.89-.63,3.078,3.078,0,0,0-1.826.463,1.267,1.267,0,0,0-.5,1.069H211.32a2.843,2.843,0,0,1,1.162-2.385,5.061,5.061,0,0,1,5.739.211,3.368,3.368,0,0,1,1.3,2.611V153.28h-1.645" transform="translate(-188.493 -130.113)"/>
      <g id="Group_147" data-name="Group 147" transform="translate(0 3.699)" clip-path="url(#clip-path-2)">
        <path id="Path_263-2" data-name="Path 263" d="M158.931,140.411a.913.913,0,0,0-.416-.81,3.431,3.431,0,0,0-1.812-.4,1.962,1.962,0,0,0-1.392.575h0a1.965,1.965,0,0,0-.572,1.395v23.272l-1.483.485-3.775-5.163-.026-.039a3.11,3.11,0,0,0-1.794-1.323,2.517,2.517,0,0,0-1.979.261v0l-.014.009h0a2.422,2.422,0,0,0-1.07,1.637,3.008,3.008,0,0,0,.433,2.114c1.985,2.6,3.675,5.127,5.238,7.468,4.476,6.705,7.879,11.8,14.4,12.346,12.221-.014,13.316-9.408,13.316-12.215V144.891a1.962,1.962,0,0,0-.578-1.391,1.981,1.981,0,0,0-2.795,0,1.956,1.956,0,0,0-.576,1.39h-1.644a3.618,3.618,0,0,1,7.236,0v25.136c0,3.188-1.231,13.86-14.986,13.86l-.064,0c-7.339-.59-10.937-5.979-15.674-13.076-1.547-2.318-3.22-4.825-5.2-7.408l-.038-.058-.012-.018,0,0a4.645,4.645,0,0,1-.67-3.3,4.052,4.052,0,0,1,1.8-2.731l0,0,.014-.009.009,0a4.136,4.136,0,0,1,3.273-.459A4.75,4.75,0,0,1,150.8,158.8l2.288,3.13V141.175a3.6,3.6,0,0,1,1.057-2.553v0a3.6,3.6,0,0,1,2.555-1.057,4.989,4.989,0,0,1,2.718.67,2.476,2.476,0,0,1,1.154,2.178h-1.644" transform="translate(-142.914 -137.534)"/>
      </g>
    </g>
  </g>
</svg>
