<svg xmlns="http://www.w3.org/2000/svg" xmlns:xlink="http://www.w3.org/1999/xlink" width="31.552" height="31.551" viewBox="0 0 31.552 31.551">
  <defs>
    <clipPath id="clip-path">
      <path id="Path_266" data-name="Path 266" d="M239,112.5h23.074v3.05H239Zm0,0" transform="translate(-239 -112.5)"/>
    </clipPath>
    <clipPath id="clip-path-2">
      <path id="Path_268" data-name="Path 268" d="M198.7,146h31.552v3.155H198.7Zm0,0" transform="translate(-198.695 -146)"/>
    </clipPath>
    <clipPath id="clip-path-3">
      <path id="Path_270" data-name="Path 270" d="M239,180h23.074v3.155H239Zm0,0" transform="translate(-239 -180)"/>
    </clipPath>
    <clipPath id="clip-path-4">
      <path id="Path_272" data-name="Path 272" d="M198.7,214h31.552v3.155H198.7Zm0,0" transform="translate(-198.695 -214)"/>
    </clipPath>
    <clipPath id="clip-path-5">
      <path id="Path_274" data-name="Path 274" d="M239,248h23.074v3.05H239Zm0,0" transform="translate(-239 -248)"/>
    </clipPath>
  </defs>
  <g id="يسار" transform="translate(-6462.552 -959)">
    <g id="Group_149" data-name="Group 149" transform="translate(6462.552 959)" clip-path="url(#clip-path)">
      <path id="Path_265" data-name="Path 265" d="M261.122,115.368h-20.08a1.434,1.434,0,0,1,0-2.868h20.08a1.434,1.434,0,1,1,0,2.868Zm0,0" transform="translate(-239.481 -112.5)"/>
    </g>
    <g id="Group_150" data-name="Group 150" transform="translate(6462.552 966.047)" clip-path="url(#clip-path-2)">
      <path id="Path_267" data-name="Path 267" d="M228.814,149.462H200.13a1.434,1.434,0,1,1,0-2.868h28.685a1.434,1.434,0,1,1,0,2.868Zm0,0" transform="translate(-198.695 -146.469)"/>
    </g>
    <g id="Group_151" data-name="Group 151" transform="translate(6462.552 973.198)" clip-path="url(#clip-path-3)">
      <path id="Path_269" data-name="Path 269" d="M261.122,183.556h-20.08a1.434,1.434,0,0,1,0-2.868h20.08a1.434,1.434,0,1,1,0,2.868Zm0,0" transform="translate(-239.481 -180.543)"/>
    </g>
    <g id="Group_152" data-name="Group 152" transform="translate(6462.552 980.35)" clip-path="url(#clip-path-4)">
      <path id="Path_271" data-name="Path 271" d="M228.814,217.649H200.13a1.434,1.434,0,1,1,0-2.868h28.685a1.434,1.434,0,1,1,0,2.868Zm0,0" transform="translate(-198.695 -214.617)"/>
    </g>
    <g id="Group_153" data-name="Group 153" transform="translate(6462.552 987.502)" clip-path="url(#clip-path-5)">
      <path id="Path_273" data-name="Path 273" d="M261.122,251.743h-20.08a1.434,1.434,0,0,1,0-2.868h20.08a1.434,1.434,0,1,1,0,2.868Zm0,0" transform="translate(-239.481 -248.691)"/>
    </g>
  </g>
</svg>
